<?xml version="1.0" standalone="no"?>
<!DOCTYPE svg PUBLIC "-//W3C//DTD SVG 20010904//EN"
 "http://www.w3.org/TR/2001/REC-SVG-20010904/DTD/svg10.dtd">
<svg version="1.0" xmlns="http://www.w3.org/2000/svg"
 width="256.000000pt" height="256.000000pt" viewBox="0 0 256.000000 256.000000"
 preserveAspectRatio="xMidYMid meet">
<metadata>
Created by potrace 1.14, written by Peter Selinger 2001-2017
</metadata>
<g transform="translate(0.000000,256.000000) scale(0.100000,-0.100000)"
fill="#000000" stroke="none">
<path d="M1715 1958 c-11 -6 -21 -12 -22 -12 -1 -1 4 -24 11 -51 12 -49 13
-149 2 -242 -3 -26 -9 -77 -13 -113 -15 -124 -10 -310 11 -369 21 -62 73 -124
126 -151 90 -46 254 -51 363 -10 61 23 128 83 156 139 46 94 50 141 40 553
l-4 178 -25 1 c-14 1 -34 3 -45 4 -11 1 -55 6 -98 10 l-77 7 2 -30 c2 -28 6
-31 45 -37 39 -6 43 -9 43 -36 0 -28 -2 -29 -44 -29 -37 0 -44 -3 -41 -17 2
-10 4 -24 4 -30 1 -8 16 -13 41 -13 39 0 40 -1 40 -35 0 -33 -2 -35 -32 -36
-18 -1 -36 -1 -40 0 -5 0 -8 -15 -8 -34 0 -34 1 -35 39 -35 40 0 51 -11 51
-51 0 -12 -7 -19 -20 -20 -11 -1 -24 -3 -30 -4 -5 -1 -17 -3 -25 -4 -12 -1
-15 -15 -12 -78 8 -206 -41 -290 -175 -300 -81 -6 -120 17 -150 85 -18 40 -22
71 -24 217 -6 336 -13 401 -56 517 -11 32 -15 35 -33 26z"/>
<path d="M1933 1530 c-47 -19 -56 -78 -17 -116 29 -30 67 -27 97 8 45 54 -14
134 -80 108z"/>
<path d="M1281 1429 c-64 -19 -116 -77 -130 -144 -8 -38 -7 -151 2 -189 8 -38
56 -97 93 -116 44 -22 161 -19 199 5 40 26 48 35 68 70 41 75 45 211 8 287
-36 75 -147 115 -240 87z m158 -73 c35 -34 48 -77 49 -157 0 -127 -56 -194
-156 -186 -94 7 -134 69 -128 203 3 85 24 128 76 156 50 27 121 20 159 -16z"/>
<path d="M176 1418 c-3 -7 -4 -110 -3 -228 l2 -215 28 -3 27 -3 -2 228 -3 228
-23 3 c-12 2 -24 -3 -26 -10z"/>
<path d="M359 1413 c-1 -24 -1 -381 0 -415 1 -23 6 -28 26 -28 l25 0 0 185 c0
102 3 185 8 185 7 0 29 -39 161 -278 46 -82 70 -102 106 -88 13 5 15 36 13
228 -3 223 -3 223 -25 226 -26 4 -24 19 -27 -200 0 -80 -3 -149 -6 -152 -3 -3
-17 16 -30 42 -59 111 -153 278 -168 295 -9 10 -29 17 -49 17 -24 0 -33 -4
-34 -17z"/>
<path d="M837 1424 c-4 -4 -7 -108 -7 -231 l0 -224 28 3 27 3 0 95 0 95 85 5
c77 5 85 7 85 25 0 18 -8 20 -82 23 -56 2 -83 7 -84 15 -1 7 -2 41 -3 77 l-1
65 90 5 c82 5 90 7 90 25 0 19 -8 20 -111 23 -60 1 -113 -1 -117 -4z"/>
</g>
</svg>
